<?xml version="1.0" encoding="utf-8"?>
<!-- Generator: Adobe Illustrator 25.4.1, SVG Export Plug-In . SVG Version: 6.00 Build 0)  -->
<svg version="1.1" id="Layer_1" xmlns="http://www.w3.org/2000/svg" xmlns:xlink="http://www.w3.org/1999/xlink" x="0px" y="0px"
	 viewBox="0 0 500 316" style="enable-background:new 0 0 500 316;" xml:space="preserve">
<style type="text/css">
	.st0{fill:#016FD0;}
	.st1{fill-rule:evenodd;clip-rule:evenodd;fill:#FFFFFF;}
	.st2{fill-rule:evenodd;clip-rule:evenodd;fill:#016FD0;}
</style>
<rect class="st0" width="500" height="316"/>
<g>
	<rect x="36.6" class="st0" width="418.1" height="316"/>
	<path class="st1" d="M117.7,240.3v-65.6h69.5l7.5,9.7l7.7-9.7h252.3v61.1c0,0-6.6,4.5-14.2,4.5H300.7l-8.4-10.3v10.3h-27.5v-17.7
		c0,0-3.8,2.5-11.9,2.5h-9.4v15.2h-41.7l-7.4-9.9l-7.6,9.9L117.7,240.3L117.7,240.3z"/>
	<path class="st1" d="M36.6,125.2l15.7-36.5h27.1l8.9,20.5V88.6h33.7l5.3,14.8l5.1-14.8h151.2v7.4c0,0,8-7.4,21-7.4l49.1,0.2
		l8.7,20.2V88.6h28.2l7.8,11.6V88.6h28.5v65.6h-28.5l-7.4-11.6v11.6h-41.4l-4.2-10.3h-11.1l-4.1,10.3H302c-11.2,0-18.4-7.3-18.4-7.3
		v7.3h-42.4l-8.4-10.3v10.3H75.3l-4.2-10.3H60.1l-4.1,10.3H36.6V125.2L36.6,125.2z"/>
	<path class="st2" d="M57.8,96.7l-21.1,49.1h13.8l3.9-9.8H77l3.9,9.8h14.1L73.8,96.7H57.8L57.8,96.7z M65.6,108.2l6.9,17.2H58.7
		L65.6,108.2L65.6,108.2z"/>
	<polygon class="st2" points="96.4,145.9 96.4,96.7 115.9,96.8 127.3,128.5 138.4,96.7 157.8,96.7 157.8,145.9 145.5,145.9 
		145.5,109.7 132.5,145.9 121.7,145.9 108.7,109.7 108.7,145.9 96.4,145.9 	"/>
	<polygon class="st2" points="166.2,145.9 166.2,96.7 206.3,96.7 206.3,107.7 178.6,107.7 178.6,116.1 205.7,116.1 205.7,126.5 
		178.6,126.5 178.6,135.2 206.3,135.2 206.3,145.9 166.2,145.9 	"/>
	<path class="st2" d="M213.4,96.7v49.1h12.3v-17.5h5.2l14.7,17.5h15l-16.2-18.1c6.6-0.6,13.5-6.3,13.5-15.1
		c0-10.3-8.1-15.9-17.2-15.9H213.4L213.4,96.7z M225.7,107.7h14c3.4,0,5.8,2.6,5.8,5.2c0,3.3-3.2,5.2-5.6,5.2h-14.2L225.7,107.7
		L225.7,107.7L225.7,107.7z"/>
	<polygon class="st2" points="275.5,145.9 263,145.9 263,96.7 275.5,96.7 275.5,145.9 	"/>
	<path class="st2" d="M305.3,145.9h-2.7c-13.1,0-21.1-10.3-21.1-24.4c0-14.4,7.9-24.8,24.4-24.8h13.6v11.6h-14.1
		c-6.7,0-11.5,5.2-11.5,13.3c0,9.5,5.4,13.5,13.3,13.5h3.2L305.3,145.9L305.3,145.9z"/>
	<path class="st2" d="M332,96.7l-21.1,49.1h13.8l3.9-9.8h22.7l3.9,9.8h14.1L348,96.7H332L332,96.7z M339.8,108.2l6.9,17.2h-13.8
		L339.8,108.2L339.8,108.2z"/>
	<polygon class="st2" points="370.6,145.9 370.6,96.7 386.2,96.7 406.1,127.6 406.1,96.7 418.4,96.7 418.4,145.9 403.3,145.9 
		382.9,114.2 382.9,145.9 370.6,145.9 	"/>
	<polygon class="st2" points="126.1,231.9 126.1,182.7 166.2,182.7 166.2,193.7 138.5,193.7 138.5,202.1 165.6,202.1 165.6,212.5 
		138.5,212.5 138.5,221.2 166.2,221.2 166.2,231.9 126.1,231.9 	"/>
	<polygon class="st2" points="322.6,231.9 322.6,182.7 362.7,182.7 362.7,193.7 335,193.7 335,202.1 361.9,202.1 361.9,212.5 
		335,212.5 335,221.2 362.7,221.2 362.7,231.9 322.6,231.9 	"/>
	<polygon class="st2" points="167.8,231.9 187.3,207.6 167.3,182.7 182.8,182.7 194.7,198.1 206.6,182.7 221.5,182.7 201.8,207.3 
		221.3,231.9 205.9,231.9 194.3,216.7 183,231.9 167.8,231.9 	"/>
	<path class="st2" d="M222.8,182.7v49.1h12.6v-15.5h12.9c10.9,0,19.2-5.8,19.2-17.1c0-9.4-6.5-16.5-17.6-16.5H222.8L222.8,182.7z
		 M235.4,193.9H249c3.5,0,6.1,2.2,6.1,5.7c0,3.3-2.5,5.7-6.1,5.7h-13.6V193.9L235.4,193.9L235.4,193.9z"/>
	<path class="st2" d="M272.9,182.7v49.1h12.3v-17.5h5.2l14.7,17.5h15L304,213.8c6.6-0.6,13.5-6.3,13.5-15.1
		c0-10.3-8.1-15.9-17.2-15.9L272.9,182.7L272.9,182.7L272.9,182.7z M285.2,193.7h14c3.4,0,5.8,2.6,5.8,5.2c0,3.3-3.2,5.2-5.6,5.2
		h-14.2V193.7L285.2,193.7z"/>
	<path class="st2" d="M368.4,231.9v-10.7H393c3.6,0,5.2-2,5.2-4.1c0-2.1-1.6-4.2-5.2-4.2h-11.1c-9.7,0-15-5.9-15-14.7
		c0-7.9,4.9-15.5,19.3-15.5H410l-5.2,11.1h-20.7c-4,0-5.2,2.1-5.2,4.1c0,2,1.5,4.3,4.5,4.3h11.6c10.8,0,15.4,6.1,15.4,14.1
		c0,8.6-5.2,15.6-16,15.6L368.4,231.9L368.4,231.9z"/>
	<path class="st2" d="M413.5,231.9v-10.7H437c3.6,0,5.2-2,5.2-4.1c0-2.1-1.6-4.2-5.2-4.2h-10.1c-9.7,0-15-5.9-15-14.7
		c0-7.9,4.9-15.5,19.3-15.5h23.5l-5.2,11.1h-20.2c-4,0-5.2,2.1-5.2,4.1c0,2,1.5,4.3,4.5,4.3h10.6c10.8,0,15.4,6.1,15.4,14.1
		c0,8.6-5.2,15.6-16,15.6L413.5,231.9L413.5,231.9z"/>
</g>
</svg>
