<svg width="182" height="31" viewBox="0 0 182 31" fill="none" xmlns="http://www.w3.org/2000/svg">
<path d="M20.4949 23.051H3.62107C2.82599 23.0465 2.06476 22.7339 1.50254 22.1809C0.940323 21.6279 0.622462 20.8792 0.61792 20.0971L0.61792 3.64131C0.622462 2.85929 0.940323 2.11057 1.50254 1.55759C2.06476 1.00461 2.82599 0.691967 3.62107 0.6875H20.4949C21.2899 0.691967 22.0512 1.00461 22.6134 1.55759C23.1756 2.11057 23.4935 2.85929 23.498 3.64131V20.2379C23.498 21.7851 22.068 23.051 20.4949 23.051Z" fill="#FF0000"/>
<path d="M16.4908 14.4711C16.0252 14.5946 15.5421 14.6422 15.0608 14.6118C14.6319 17.0028 12.9157 18.9719 10.4848 19.394C7.3389 20.0973 4.19268 17.9875 3.47797 14.8932C3.17851 13.3475 3.50404 11.7479 4.38529 10.4347C5.26654 9.12144 6.63398 8.19821 8.19668 7.8614C9.10073 7.69331 10.0326 7.74158 10.9137 8.00212C11.2748 7.00531 11.9591 6.1529 12.8611 5.57614C13.7631 4.99937 14.8329 4.73024 15.9057 4.81018C16.9785 4.89012 17.9948 5.3147 18.7982 6.01854C19.6016 6.72238 20.1474 7.66645 20.3518 8.70539C20.61 9.97321 20.3493 11.2901 19.626 12.3698C18.9028 13.4496 17.7756 14.205 16.4893 14.472L16.4908 14.4711ZM15.6327 6.31353C15.1804 6.30765 14.7314 6.39094 14.3123 6.5585C13.8932 6.72606 13.5125 6.97449 13.1926 7.28913C12.8727 7.60377 12.6201 7.97824 12.4497 8.39045C12.2794 8.80266 12.1947 9.24426 12.2007 9.68919V10.2517C11.4152 9.6818 10.4594 9.3849 9.48366 9.40776C8.60693 9.40782 7.74991 9.66358 7.02096 10.1427C6.29202 10.6218 5.72389 11.3028 5.38843 12.0995C5.05296 12.8962 4.96522 13.7729 5.13629 14.6186C5.30737 15.4644 5.72959 16.2412 6.34955 16.8509C6.96952 17.4607 7.75938 17.8759 8.61927 18.0441C9.47916 18.2123 10.3704 18.126 11.1804 17.796C11.9904 17.4659 12.6827 16.9071 13.1698 16.1901C13.6569 15.4731 13.9169 14.6301 13.9169 13.7678C13.9399 13.3875 13.8914 13.0063 13.7738 12.6433C14.3379 12.9764 14.9759 13.1694 15.6327 13.2059C16.5392 13.1937 17.4051 12.8341 18.0461 12.2035C18.6871 11.573 19.0526 10.7212 19.0648 9.8296C19.0648 8.00121 17.4917 6.31323 15.6327 6.31323V6.31353Z" fill="white"/>
<path d="M13.202 13.7676C13.2054 14.2487 13.1116 14.7258 12.9259 15.1709C12.7403 15.6161 12.4666 16.0206 12.1207 16.3608C11.7747 16.701 11.3635 16.9703 10.9109 17.1528C10.4583 17.3354 9.97332 17.4277 9.48413 17.4244V13.7676H13.202Z" fill="white"/>
<path d="M32.1278 23.031H28.7368V29.3152H29.9821V26.5452H31.9949V25.49H29.9821V24.0877H32.1278V23.031ZM36.7844 22.8896C34.7728 22.8896 33.3743 24.2652 33.3743 26.1778C33.3743 28.0904 34.7716 29.4565 36.7844 29.4565C38.7972 29.4565 40.1945 28.0888 40.1945 26.1778C40.1945 24.2667 38.7947 22.8896 36.7844 22.8896ZM36.7844 28.3447C35.5391 28.3447 34.6578 27.4497 34.6578 26.1778C34.6578 24.9059 35.5391 24.0014 36.7844 24.0014C38.0296 24.0014 38.9109 24.9059 38.9109 26.1778C38.9109 27.4497 38.0284 28.3447 36.7844 28.3447ZM41.821 23.031V29.3152H43.0663V26.7902H43.2208L44.9252 29.3152H46.477L44.4846 26.6677C44.7349 26.6268 44.9734 26.5336 45.1839 26.3942C45.4247 26.2293 45.6195 26.0074 45.75 25.7489C45.8806 25.4904 45.9427 25.2037 45.9307 24.9153C45.9396 24.6482 45.8874 24.3826 45.778 24.138C45.6686 23.8934 45.5047 23.676 45.2985 23.5021C45.0016 23.2571 44.5514 23.031 43.6701 23.031H41.821ZM43.0663 24.0297H43.4399C43.6698 24.0297 44.6468 24.0391 44.6468 24.9718C44.6468 25.8951 43.6602 25.9234 43.4207 25.9234H43.0669L43.0663 24.0297ZM53.22 23.031V29.3152H54.4653V26.988H55.2687C55.5626 27.0072 55.8575 26.9679 56.1357 26.8724C56.4138 26.7769 56.6695 26.6271 56.8875 26.4322C57.2388 26.0476 57.4268 25.5452 57.4128 25.0283C57.4204 24.7446 57.3665 24.4625 57.2548 24.2007C57.1431 23.939 56.9761 23.7036 56.7648 23.5103C56.2955 23.1051 55.7973 23.0298 55.0789 23.0298L53.22 23.031ZM54.4653 24.0862H54.8963C55.2038 24.0614 55.5115 24.1305 55.7776 24.284C55.8906 24.3666 55.9819 24.4747 56.0437 24.5992C56.1055 24.7237 56.136 24.861 56.1326 24.9995C56.1347 25.1396 56.1047 25.2784 56.0451 25.4057C55.9854 25.533 55.8975 25.6455 55.7878 25.735C55.5468 25.8894 55.2599 25.9591 54.9736 25.9328H54.4659L54.4653 24.0862ZM61.9177 22.8896C59.9061 22.8896 58.5076 24.2652 58.5076 26.1778C58.5076 28.0904 59.9067 29.4565 61.9183 29.4565C63.9299 29.4565 65.3284 28.0888 65.3284 26.1778C65.3284 24.2667 63.9299 22.8896 61.9183 22.8896H61.9177ZM61.9177 28.3447C60.6724 28.3447 59.7912 27.4497 59.7912 26.1778C59.7912 24.9059 60.6724 24.0014 61.9177 24.0014C63.1629 24.0014 64.0442 24.9059 64.0442 26.1778C64.0442 27.4497 63.1636 28.3447 61.9183 28.3447H61.9177ZM70.9794 25.3298L72.3785 29.3152H73.3172L75.6832 23.031H74.3614L72.8287 27.3093L71.3536 22.9754H70.6639L69.1025 27.3093L67.6752 23.0319H66.3533L68.5757 29.3152H69.5144L70.9794 25.3298ZM80.4529 23.031H76.9087V29.3152H80.4529V28.2599H78.154V26.5452H80.3572V25.49H78.154V24.0877H80.4529V23.031ZM82.1388 23.031V29.3152H83.3841V26.7902H83.5386L85.243 29.3152H86.7948L84.8027 26.6677C85.053 26.6268 85.2915 26.5336 85.502 26.3942C85.743 26.2293 85.9378 26.0073 86.0684 25.7488C86.199 25.4902 86.2611 25.2034 86.2491 24.915C86.258 24.6479 86.2058 24.3823 86.0964 24.1377C85.987 23.8931 85.8231 23.6757 85.6169 23.5017C85.32 23.2568 84.8698 23.0307 83.9885 23.0307L82.1388 23.031ZM83.3841 24.0297H83.7577C83.9876 24.0297 84.9646 24.0391 84.9646 24.9718C84.9646 25.8951 83.978 25.9234 83.7385 25.9234H83.3841V24.0297ZM93.5378 23.031V29.3152H95.6835C96.2688 29.3507 96.8464 29.1691 97.3023 28.8064C97.4798 28.6445 97.6202 28.4475 97.7143 28.2282C97.8085 28.0089 97.8541 27.7724 97.8483 27.5345C97.8566 27.3178 97.8201 27.1017 97.7411 26.8993C97.6621 26.6969 97.5421 26.5123 97.3885 26.3568C97.1597 26.1419 96.8677 26.0036 96.5542 25.9617C96.7795 25.8428 96.9662 25.664 97.0933 25.4458C97.2203 25.2276 97.2824 24.9787 97.2727 24.7275C97.2799 24.4807 97.2302 24.2355 97.1274 24.0103C97.0245 23.7852 96.8711 23.5858 96.6787 23.4273C96.2165 23.1306 95.6678 22.9918 95.1174 23.0322L93.5378 23.031ZM94.7831 24.0297H95.147C95.6547 24.0297 96.1049 24.2464 96.1049 24.8199C96.1049 25.6207 95.329 25.6404 95.1375 25.6404H94.7834L94.7831 24.0297ZM94.7831 26.5826H95.2428C95.5326 26.5627 95.8233 26.6041 96.0954 26.7042C96.238 26.7629 96.3593 26.8627 96.4431 26.9905C96.5268 27.1184 96.5693 27.2682 96.5647 27.4202C96.5715 27.5646 96.5388 27.7082 96.47 27.836C96.4013 27.9638 96.299 28.0711 96.1739 28.1469C95.9094 28.2752 95.6156 28.3336 95.3213 28.3165H94.7834L94.7831 26.5826ZM99.4767 23.0307V29.3152H100.722V23.031L99.4767 23.0307Z" fill="white"/>
<path d="M33.2982 18.9008C35.0945 18.9252 36.8281 18.2525 38.1236 17.0284C39.3487 15.8233 39.7634 14.3773 39.7634 12.7458C39.7634 11.411 39.4807 9.63122 38.0105 8.24078C36.3895 6.70203 34.2784 6.53517 33.0155 6.53517H28.7368V18.9008H33.2982ZM31.9977 9.26044H32.7893C33.5998 9.26044 34.6177 9.3346 35.3905 10.0391C36.0125 10.6138 36.3706 11.5964 36.3706 12.7458C36.3706 14.1177 35.824 14.8964 35.4093 15.2857C34.5611 16.1014 33.449 16.1756 32.6574 16.1756H31.9977V9.26044ZM41.1771 18.9008H44.1929V15.3598C44.1929 14.9149 44.2306 14.0436 44.8727 13.4688C45.2577 13.1547 45.7493 12.9957 46.2487 13.0239C46.7008 13.0124 47.1484 13.1145 47.5492 13.3205V10.5211C47.1534 10.5026 47.0215 10.484 46.9461 10.484C46.4046 10.467 45.8672 10.5819 45.3816 10.8183C44.8733 11.0698 44.4579 11.4719 44.1941 11.9678V10.6144H41.1771V18.9008ZM48.5093 10.6138V18.9008H51.5251V10.6138H48.5093ZM48.3208 7.16551C48.3199 7.38488 48.3631 7.60227 48.448 7.80512C48.5329 8.00797 48.6579 8.19228 48.8156 8.3474C48.9733 8.50252 49.1607 8.62539 49.3669 8.70891C49.5732 8.79244 49.7942 8.83496 50.0172 8.83404C50.2403 8.83496 50.4613 8.79244 50.6675 8.70891C50.8738 8.62539 51.0611 8.50252 51.2189 8.3474C51.3766 8.19228 51.5015 8.00797 51.5864 7.80512C51.6713 7.60227 51.7146 7.38488 51.7136 7.16551C51.7146 6.94613 51.6713 6.72875 51.5864 6.5259C51.5015 6.32304 51.3766 6.13874 51.2189 5.98362C51.0611 5.8285 50.8738 5.70563 50.6675 5.6221C50.4613 5.53858 50.2403 5.49605 50.0172 5.49698C49.7942 5.49605 49.5732 5.53858 49.3669 5.6221C49.1607 5.70563 48.9733 5.8285 48.8156 5.98362C48.6579 6.13874 48.5329 6.32304 48.448 6.5259C48.3631 6.72875 48.3199 6.94613 48.3208 7.16551ZM53.203 5.38574V18.9008H56.2188V5.38574H53.203ZM57.8964 5.38574V18.9008H60.9122V5.38574H57.8964ZM71.4496 18.9008C73.2459 18.9252 74.9795 18.2525 76.275 17.0284C77.5001 15.8233 77.9148 14.3773 77.9148 12.7458C77.9148 11.411 77.6321 9.63122 76.1619 8.24078C74.5409 6.70203 72.4298 6.53517 71.1669 6.53517H66.887V18.9008H71.4496ZM70.1491 9.26044H70.9407C71.7512 9.26044 72.7691 9.3346 73.5419 10.0391C74.1639 10.6138 74.522 11.5964 74.522 12.7458C74.522 14.1177 73.9754 14.8964 73.5607 15.2857C72.7125 16.1014 71.6004 16.1756 70.8088 16.1756H70.1491V9.26044ZM84.0596 12.857C84.5567 12.8727 85.0317 13.0635 85.3978 13.3947C85.7591 13.7572 85.9678 14.2406 85.9821 14.748C85.9801 14.9949 85.9273 15.2388 85.8269 15.465C85.7265 15.6912 85.5805 15.8951 85.3978 16.0643C85.0433 16.4154 84.5626 16.6151 84.0596 16.6205C83.5502 16.6188 83.0623 16.4188 82.7024 16.0643C82.3414 15.7168 82.1319 15.2448 82.1181 14.748C82.1199 14.4957 82.1724 14.2462 82.2727 14.0139C82.373 13.7816 82.519 13.5712 82.7024 13.3947C83.0736 13.0603 83.5552 12.8694 84.0583 12.857H84.0596ZM89.1111 14.748C89.1202 14.1805 89.0093 13.6172 88.7855 13.094C88.5616 12.5708 88.2295 12.0991 87.8105 11.7088C86.7845 10.7845 85.4313 10.292 84.0407 10.3369C82.6555 10.2904 81.3075 10.7834 80.2898 11.7088C79.8707 12.0991 79.5387 12.5708 79.3148 13.094C79.0909 13.6172 78.98 14.1805 78.9892 14.748C78.9796 15.3184 79.0901 15.8846 79.3137 16.411C79.5373 16.9374 79.8692 17.4126 80.2885 17.8067C81.4572 18.9379 82.8143 19.1789 84.0395 19.1789C85.3966 19.1789 86.6969 18.8823 87.8092 17.807C88.2289 17.413 88.561 16.9378 88.7849 16.4113C89.0087 15.8849 89.1193 15.3186 89.1098 14.748H89.1111ZM89.4315 10.6147L93.7655 18.9008H95.8012L97.818 14.3402L99.9291 18.9008H101.965L106.375 10.6138H103.02L100.909 15.1188L98.7793 10.6138H96.9321L94.8022 14.9903L92.8042 10.6138L89.4315 10.6147ZM107.035 18.9008H110.051V14.4514C110.038 13.9674 110.214 13.4967 110.541 13.1351C110.85 12.8749 111.246 12.7362 111.653 12.7458C111.83 12.7351 112.006 12.7609 112.172 12.8216C112.338 12.8823 112.488 12.9764 112.615 13.0981C113.011 13.5059 112.992 14.2289 112.992 14.711V18.9008H116.007V13.6357C116.007 12.7273 115.932 12.0228 115.216 11.3183C114.882 11.0142 114.491 10.7788 114.063 10.626C113.636 10.4731 113.182 10.406 112.728 10.4284C112.214 10.4042 111.702 10.5029 111.236 10.716C110.77 10.9291 110.363 11.2503 110.051 11.652V10.6138H107.035L107.035 18.9008ZM120.662 6.53517L125.941 18.9008H128.485L133.838 6.53517H130.295L127.241 14.0621L124.227 6.53517H120.662ZM134.497 10.6138V18.9008H137.513V10.6138H134.497ZM134.309 7.16551C134.308 7.38488 134.351 7.60227 134.436 7.80512C134.521 8.00797 134.646 8.19228 134.803 8.3474C134.961 8.50252 135.148 8.62539 135.355 8.70891C135.561 8.79244 135.782 8.83496 136.005 8.83404C136.228 8.83496 136.449 8.79244 136.655 8.70891C136.861 8.62539 137.049 8.50252 137.207 8.3474C137.364 8.19228 137.489 8.00797 137.574 7.80512C137.659 7.60227 137.702 7.38488 137.701 7.16551C137.702 6.94613 137.659 6.72875 137.574 6.5259C137.489 6.32304 137.364 6.13874 137.207 5.98362C137.049 5.8285 136.861 5.70563 136.655 5.6221C136.449 5.53858 136.228 5.49605 136.005 5.49698C135.782 5.49617 135.561 5.53879 135.355 5.62237C135.149 5.70594 134.962 5.82883 134.804 5.98394C134.646 6.13905 134.521 6.32331 134.437 6.52611C134.352 6.7289 134.309 6.94621 134.309 7.16551H134.309ZM138.664 18.2149C139.676 18.852 140.854 19.1868 142.056 19.1789C142.753 19.1789 144.186 19.1048 145.166 18.1407C145.444 17.8738 145.663 17.5532 145.809 17.1991C145.955 16.8449 146.025 16.4649 146.014 16.0829C146.027 15.4717 145.797 14.8796 145.373 14.4329C145.007 14.1373 144.584 13.9167 144.129 13.784L143.583 13.6357C143.111 13.5059 142.866 13.5059 142.584 13.3947C142.481 13.3663 142.39 13.3056 142.325 13.222C142.261 13.1383 142.226 13.0363 142.225 12.9312C142.225 12.8454 142.249 12.7613 142.296 12.6889C142.343 12.6165 142.41 12.559 142.489 12.5233C142.701 12.4031 142.943 12.3452 143.187 12.3565C143.737 12.3883 144.275 12.5269 144.77 12.7643L145.788 10.8734C144.935 10.5194 144.018 10.3366 143.092 10.3357C141.848 10.3357 140.717 10.688 140.077 11.3368C139.563 11.888 139.28 12.6099 139.285 13.3576C139.269 13.886 139.465 14.3993 139.832 14.786C140.234 15.1709 140.747 15.4235 141.302 15.5091L142.093 15.6945C142.377 15.7328 142.648 15.8343 142.885 15.9911C142.938 16.0368 142.98 16.0942 143.006 16.1587C143.032 16.2231 143.042 16.2927 143.036 16.3619C143.042 16.4338 143.032 16.5062 143.006 16.5736C142.98 16.6411 142.939 16.7018 142.885 16.7512C142.659 16.9052 142.388 16.9832 142.113 16.9737C141.715 16.9644 141.321 16.8956 140.944 16.7697C140.512 16.6295 140.105 16.4231 139.739 16.1579L138.664 18.2149ZM147.183 10.6138V15.7862C147.157 16.1875 147.214 16.5898 147.35 16.969C147.486 17.3481 147.698 17.6963 147.975 17.9924C148.974 19.0491 150.52 19.1777 151.782 19.1777C152.932 19.1777 154.384 19.0665 155.42 18.0097C156.174 17.2499 156.231 16.4901 156.231 15.785V10.6138H153.215V15.2486C153.229 15.4622 153.199 15.6764 153.124 15.8775C153.05 16.0787 152.933 16.2623 152.782 16.4166C152.638 16.5451 152.468 16.6428 152.283 16.7034C152.098 16.7641 151.902 16.7863 151.708 16.7688C151.329 16.7939 150.953 16.6818 150.652 16.4537C150.496 16.2948 150.375 16.1056 150.297 15.8981C150.219 15.6906 150.186 15.4694 150.2 15.2486V10.6138H147.183ZM164.449 11.411C164.13 11.0653 163.74 10.7905 163.304 10.6051C162.868 10.4196 162.398 10.3278 161.923 10.3357C160.796 10.3222 159.707 10.7411 158.888 11.5037C158.458 11.9437 158.121 12.464 157.898 13.0339C157.674 13.6037 157.569 14.2117 157.588 14.8222C157.571 15.3824 157.67 15.9401 157.877 16.4622C158.084 16.9843 158.395 17.4601 158.793 17.8614C159.175 18.2802 159.643 18.6142 160.167 18.8414C160.69 19.0685 161.257 19.1836 161.829 19.1789C162.33 19.2011 162.829 19.105 163.285 18.8988C163.741 18.6927 164.14 18.3823 164.449 17.9936V18.9008H167.465V10.6138H164.449V11.411ZM162.602 12.857C163.108 12.8542 163.596 13.0473 163.959 13.3947C164.146 13.5684 164.294 13.7783 164.395 14.0112C164.496 14.2441 164.546 14.495 164.543 14.748C164.548 14.9969 164.5 15.244 164.403 15.4738C164.305 15.7036 164.161 15.9109 163.978 16.0829C163.62 16.4436 163.132 16.6503 162.621 16.6576C162.115 16.6376 161.634 16.4403 161.263 16.1014C161.08 15.9249 160.934 15.7145 160.834 15.4822C160.733 15.2499 160.681 15.0004 160.679 14.748C160.691 14.2363 160.907 13.7498 161.282 13.3947C161.636 13.0559 162.108 12.8634 162.602 12.857ZM169.161 5.38574V18.9008H172.177V5.38574H169.161ZM173.326 18.2149C174.339 18.8521 175.517 19.187 176.719 19.1789C177.417 19.1789 178.849 19.1048 179.83 18.1407C180.108 17.8738 180.327 17.5532 180.473 17.1991C180.618 16.8449 180.688 16.4649 180.678 16.0829C180.691 15.4717 180.461 14.8796 180.037 14.4329C179.67 14.1373 179.247 13.9167 178.793 13.784L178.246 13.6357C177.775 13.5059 177.53 13.5059 177.247 13.3947C177.144 13.3663 177.054 13.3056 176.989 13.222C176.925 13.1383 176.889 13.0363 176.889 12.9312C176.888 12.8454 176.913 12.7613 176.96 12.6889C177.007 12.6165 177.074 12.559 177.153 12.5233C177.364 12.4031 177.606 12.3452 177.85 12.3565C178.4 12.3883 178.938 12.5269 179.434 12.7643L180.452 10.8734C179.598 10.5194 178.682 10.3367 177.756 10.3357C176.512 10.3357 175.381 10.688 174.74 11.3368C174.227 11.888 173.944 12.6099 173.949 13.3576C173.932 13.886 174.129 14.3993 174.495 14.786C174.897 15.1709 175.411 15.4235 175.966 15.5091L176.757 15.6945C177.041 15.7328 177.311 15.8343 177.549 15.9911C177.602 16.0368 177.643 16.0942 177.669 16.1587C177.696 16.2231 177.706 16.2927 177.7 16.3619C177.706 16.4338 177.696 16.5062 177.67 16.5736C177.644 16.6411 177.602 16.7018 177.549 16.7512C177.322 16.9052 177.051 16.9832 176.776 16.9737C176.379 16.9644 175.984 16.8956 175.608 16.7697C175.176 16.6295 174.769 16.4231 174.403 16.1579L173.326 18.2149Z" fill="white"/>
</svg>
