<svg width="149" height="28" viewBox="0 0 149 28" fill="none" xmlns="http://www.w3.org/2000/svg">
<g clip-path="url(#clip0_422:1137)">
<path d="M14.8835 27.7443H13.1723V17.9491C13.1723 17.1767 13.219 16.2353 13.3125 15.125H13.2738C13.1648 15.6068 13.0194 16.0796 12.8388 16.5395L7.86471 27.7443H7.02846L2.04473 16.6408C1.85356 16.1578 1.70634 15.6585 1.60485 15.1491H1.56618C1.61935 15.7333 1.64835 16.6795 1.64835 17.9974V27.7684H0V13.1602H2.25742L6.73359 23.3319C6.99683 23.9057 7.21815 24.4979 7.39583 25.1036H7.46834C7.80671 24.1671 8.03874 23.5733 8.16925 23.3174L12.7373 13.1795H14.8835V27.7636" fill="white"/>
<path d="M19.9156 13.5994C19.9187 13.7447 19.891 13.8891 19.8343 14.023C19.7777 14.157 19.6934 14.2774 19.5869 14.3766C19.485 14.4768 19.3641 14.5557 19.2313 14.6087C19.0985 14.6618 18.9565 14.6879 18.8135 14.6856C18.5263 14.6912 18.2485 14.5837 18.0401 14.3863C17.9355 14.2844 17.8535 14.1617 17.7994 14.0261C17.7452 13.8906 17.7202 13.7452 17.7259 13.5994C17.7247 13.4589 17.7514 13.3195 17.8045 13.1894C17.8576 13.0593 17.9361 12.9411 18.0353 12.8414C18.135 12.736 18.2558 12.6527 18.3899 12.597C18.524 12.5412 18.6683 12.5143 18.8135 12.518C18.959 12.5139 19.1038 12.5401 19.2386 12.595C19.3734 12.6499 19.4954 12.7321 19.5966 12.8366C19.6997 12.9348 19.7813 13.0533 19.8362 13.1846C19.8912 13.3159 19.9182 13.4571 19.9156 13.5994ZM19.6304 27.7442H17.9627V17.3311H19.6304V27.7442Z" fill="white"/>
<path d="M29.4866 27.266C28.6191 27.7706 27.6284 28.0246 26.6249 27.9998C25.729 28.0143 24.8456 27.7875 24.0678 27.3432C23.3137 26.9072 22.7012 26.2637 22.3034 25.4894C21.8757 24.6549 21.6599 23.7282 21.675 22.7908C21.6025 21.268 22.134 19.778 23.1542 18.6439C23.6618 18.1182 24.2756 17.7064 24.9549 17.4359C25.6341 17.1654 26.3632 17.0423 27.0938 17.075C27.9302 17.0586 28.7585 17.2406 29.5107 17.606V19.3101C28.7886 18.7849 27.9195 18.4995 27.0261 18.4943C26.5295 18.4791 26.0357 18.5749 25.5808 18.7745C25.1259 18.9741 24.7213 19.2725 24.3965 19.6481C23.7005 20.4847 23.3405 21.5496 23.3862 22.6363C23.3244 23.69 23.6705 24.727 24.353 25.5329C24.6794 25.886 25.0791 26.1635 25.5241 26.3462C25.9691 26.5288 26.4488 26.6121 26.9294 26.5901C27.8584 26.5756 28.7568 26.2567 29.4866 25.6825V27.266Z" fill="white"/>
<path d="M36.9358 19.0206C36.5605 18.7718 36.1139 18.6531 35.6645 18.6827C35.2994 18.6835 34.9411 18.7803 34.6254 18.9634C34.3097 19.1464 34.0479 19.4092 33.8663 19.7254C33.3726 20.5418 33.132 21.4858 33.175 22.4385V27.7489H31.5073V17.331H33.175V19.4744H33.2137C33.405 18.8199 33.7749 18.2316 34.282 17.7751C34.7368 17.3666 35.3283 17.1427 35.94 17.1475C36.2777 17.1332 36.6152 17.1807 36.9358 17.2875V19.0206Z" fill="white"/>
<path d="M47.4203 22.4966C47.4903 23.9597 46.9856 25.3922 46.0136 26.489C45.5284 26.9962 44.9399 27.3935 44.2878 27.6542C43.6357 27.9149 42.9352 28.0328 42.2335 28.0001C41.5512 28.0326 40.8697 27.9204 40.234 27.6708C39.5982 27.4211 39.0227 27.0398 38.5453 26.5518C37.5994 25.4931 37.105 24.1072 37.1677 22.6897C37.1677 20.9679 37.6398 19.6065 38.584 18.6056C39.0902 18.0944 39.6992 17.6963 40.3708 17.4375C41.0424 17.1787 41.7613 17.0651 42.4801 17.1042C43.1542 17.0677 43.8282 17.1783 44.4552 17.4284C45.0821 17.6785 45.6469 18.0621 46.1103 18.5525C46.9869 19.518 47.4235 20.8424 47.4203 22.5256V22.4966ZM45.7139 22.5883C45.7852 21.5135 45.4773 20.4477 44.8438 19.5759C44.5371 19.2224 44.153 18.9441 43.7214 18.7624C43.2897 18.5808 42.822 18.5007 42.3544 18.5283C41.8774 18.5065 41.4016 18.5915 40.9617 18.7769C40.5217 18.9623 40.1289 19.2436 39.8118 19.6001C39.1422 20.4619 38.8104 21.5382 38.8788 22.627C38.8151 23.6848 39.1496 24.7283 39.8166 25.5525C40.1365 25.903 40.5296 26.1789 40.9682 26.3608C41.4068 26.5427 41.88 26.626 42.3544 26.6049C42.822 26.6341 43.29 26.5558 43.7225 26.3758C44.1549 26.1959 44.5402 25.9191 44.8487 25.567C45.4777 24.706 45.7839 23.6518 45.7139 22.5883Z" fill="white"/>
<path d="M55.1691 24.9589C55.1799 25.3807 55.0915 25.7991 54.911 26.1806C54.7305 26.5621 54.463 26.896 54.1299 27.1555C53.3323 27.7523 52.3505 28.0512 51.3552 28.0003C50.4539 28.0217 49.563 27.8035 48.7739 27.3679V25.5865C49.5311 26.2256 50.4896 26.5777 51.4809 26.581C52.7989 26.581 53.4596 26.0982 53.4628 25.1327C53.4699 24.9537 53.4391 24.7751 53.3725 24.6088C53.3059 24.4424 53.2049 24.2919 53.0761 24.1672C52.5389 23.7553 51.9467 23.4205 51.3165 23.1727C50.585 22.9016 49.9242 22.4692 49.383 21.9079C48.9814 21.398 48.7788 20.7599 48.8126 20.112C48.8086 19.6968 48.9003 19.2863 49.0805 18.9121C49.2607 18.5379 49.5246 18.2101 49.8519 17.9541C50.5976 17.3594 51.5328 17.0527 52.4863 17.0899C53.2548 17.0782 54.0157 17.2434 54.7099 17.5727V19.2527C54.0263 18.7536 53.1976 18.4925 52.351 18.5093C51.8757 18.4864 51.4073 18.6298 51.0265 18.9148C50.87 19.0399 50.7448 19.1997 50.6609 19.3816C50.577 19.5634 50.5367 19.7622 50.5431 19.9624C50.5298 20.1573 50.5572 20.3528 50.6238 20.5365C50.6904 20.7202 50.7946 20.8881 50.9298 21.0293C51.4111 21.4054 51.9497 21.7021 52.525 21.9079C53.3078 22.1916 54.019 22.6431 54.6084 23.2306C55.0181 23.7151 55.2319 24.3349 55.2078 24.9686" fill="white"/>
<path d="M66.5529 22.4964C66.6211 23.96 66.1146 25.3924 65.1414 26.4888C64.6561 26.996 64.0676 27.3933 63.4155 27.654C62.7634 27.9147 62.0629 28.0326 61.3613 27.9999C60.6795 28.0336 59.9984 27.9219 59.3633 27.6722C58.7282 27.4224 58.1536 27.0404 57.6779 26.5516C56.732 25.4929 56.2376 24.107 56.3002 22.6895C56.3002 20.9677 56.7707 19.6063 57.7117 18.6054C58.2183 18.0947 58.8273 17.6969 59.4988 17.4381C60.1703 17.1794 60.8891 17.0655 61.6078 17.104C62.2819 17.0674 62.956 17.1781 63.5829 17.4282C64.2099 17.6783 64.7747 18.0619 65.2381 18.5523C66.1146 19.5178 66.5529 20.8422 66.5529 22.5254V22.4964ZM64.8417 22.5881C64.9129 21.5133 64.6051 20.4475 63.9716 19.5757C63.6653 19.2229 63.2821 18.9449 62.8513 18.7633C62.4205 18.5817 61.9538 18.5012 61.487 18.5281C61.0099 18.5056 60.5338 18.5902 60.0938 18.7757C59.6538 18.9612 59.261 19.2428 58.9444 19.5999C58.2778 20.4524 57.9445 21.5179 58.0066 22.5978C57.9423 23.6565 58.2787 24.7007 58.9492 25.5233C59.2684 25.8746 59.6615 26.1511 60.1002 26.333C60.5389 26.515 61.0125 26.5978 61.487 26.5757C61.9537 26.6042 62.4209 26.5255 62.8524 26.3455C63.284 26.1656 63.6685 25.8893 63.9764 25.5378C64.6054 24.6768 64.9117 23.6226 64.8417 22.5592" fill="white"/>
<path d="M73.3831 13.7925C73.0445 13.6058 72.6628 13.5109 72.2761 13.5173C71.1128 13.5173 70.5295 14.2527 70.5262 15.7235V17.3311H72.9432V18.7456H70.5262V27.7442H68.8586V18.7456H67.0894V17.3311H68.8586V15.6414C68.8373 15.1738 68.9088 14.7067 69.0689 14.2667C69.229 13.8268 69.4746 13.4228 69.7915 13.078C70.0986 12.759 70.4695 12.5082 70.8801 12.3419C71.2907 12.1755 71.7318 12.0973 72.1746 12.1125C72.5853 12.0977 72.9952 12.16 73.3831 12.2959V13.8021" fill="white"/>
<path d="M79.4448 27.6426C78.9604 27.8877 78.4211 28.0041 77.8786 27.9806C76.0611 27.9806 75.1523 26.9571 75.1523 24.9102V18.7454H73.3638V17.3309H75.1523V14.7868L76.82 14.2461V17.3309H79.4448V18.7454H76.82V24.6206C76.7747 25.1418 76.9003 25.6637 77.1777 26.1075C77.3292 26.2667 77.515 26.3895 77.721 26.4664C77.927 26.5434 78.1479 26.5725 78.3668 26.5516C78.7536 26.5604 79.1324 26.4416 79.4448 26.2137V27.662" fill="white"/>
<path d="M94.6279 17.5146C94.6533 18.1552 94.5364 18.7933 94.2857 19.3834C94.035 19.9735 93.6566 20.5009 93.1778 20.9277C92.1047 21.8205 90.7345 22.2773 89.3397 22.2071H87.4061V27.7298H85.7046V13.1602H89.7119C91.2716 13.1602 92.4817 13.5415 93.3421 14.3043C93.7785 14.7129 94.1198 15.2122 94.342 15.7669C94.5641 16.3216 94.6618 16.9182 94.6279 17.5146ZM92.8346 17.6064C92.8346 15.6753 91.6954 14.7098 89.417 14.7098H87.4158V20.6864H89.2043C90.1699 20.7516 91.1268 20.4689 91.9016 19.8898C92.2191 19.6038 92.4678 19.2499 92.6294 18.8546C92.7909 18.4592 92.861 18.0325 92.8346 17.6064Z" fill="white"/>
<path d="M103.334 27.7439H101.661V26.117H101.623C101.32 26.7006 100.859 27.187 100.292 27.5201C99.725 27.8533 99.0752 28.0195 98.4177 27.9998C97.5365 28.0453 96.6715 27.7516 96.0007 27.1791C95.6985 26.9002 95.461 26.5586 95.3048 26.1783C95.1487 25.7981 95.0777 25.3883 95.0968 24.9777C95.0968 23.0467 96.2424 21.9203 98.5337 21.5984L101.656 21.1591C101.656 19.3987 100.941 18.5168 99.5101 18.5136C98.2648 18.5145 97.0622 18.9674 96.1264 19.7881V18.0646C96.6038 17.7487 97.1319 17.5169 97.6878 17.3791C98.3265 17.1787 98.9906 17.0698 99.66 17.0557C102.106 17.0557 103.331 18.3543 103.334 20.9515V27.7101V27.7439ZM101.661 22.4432L99.1428 22.8005C98.4956 22.8449 97.871 23.0561 97.3301 23.4136C97.1443 23.5933 97.0014 23.8125 96.9119 24.0548C96.8223 24.2971 96.7885 24.5564 96.8128 24.8136C96.8035 25.0513 96.8487 25.288 96.9451 25.5055C97.0414 25.7231 97.1863 25.9158 97.3687 26.0688C97.7771 26.4008 98.2927 26.5724 98.8189 26.5515C99.2034 26.5623 99.5858 26.4898 99.9396 26.339C100.293 26.1882 100.61 25.9626 100.868 25.6777C101.413 25.0817 101.702 24.297 101.676 23.4908V22.477" fill="white"/>
<path d="M111.387 19.0205C110.886 18.7075 110.28 18.606 109.704 18.7381C109.128 18.8703 108.627 19.2253 108.313 19.7253C107.819 20.5416 107.579 21.4857 107.622 22.4384V27.7487H105.954V17.3308H107.622V19.4743H107.66C107.853 18.8206 108.223 18.2327 108.728 17.7749C109.183 17.3664 109.775 17.1426 110.387 17.1474C110.726 17.1335 111.065 17.181 111.387 17.2874V19.0205Z" fill="white"/>
<path d="M119.16 27.6426C118.675 27.8877 118.136 28.0041 117.594 27.9806C115.776 27.9806 114.867 26.9571 114.867 24.9102V18.7454H113.074V17.3309H114.867V14.7868L116.535 14.2461V17.3309H119.16V18.7454H116.535V24.6206C116.488 25.1413 116.612 25.6631 116.888 26.1075C117.04 26.2674 117.227 26.3905 117.433 26.4675C117.64 26.5445 117.862 26.5732 118.082 26.5516C118.469 26.5604 118.847 26.4416 119.16 26.2137V27.662" fill="white"/>
<path d="M130.138 27.7443H128.47V21.8064C128.47 19.5986 127.664 18.4963 126.053 18.4995C125.662 18.4924 125.274 18.5724 124.918 18.7335C124.562 18.8947 124.246 19.133 123.994 19.4312C123.425 20.089 123.128 20.938 123.162 21.8064V27.7443H121.495V17.3312H123.162V19.0595H123.206C123.533 18.4427 124.026 17.9298 124.63 17.5791C125.234 17.2284 125.925 17.0538 126.623 17.0753C127.117 17.0449 127.61 17.1304 128.064 17.3249C128.518 17.5194 128.921 17.8175 129.239 18.1953C129.895 19.1177 130.214 20.2376 130.142 21.3671V27.7443" fill="white"/>
<path d="M141.048 22.9553H133.695C133.651 23.9369 133.983 24.8985 134.623 25.6442C134.947 25.9636 135.334 26.2116 135.759 26.3721C136.185 26.5326 136.639 26.602 137.094 26.576C138.267 26.577 139.406 26.1747 140.318 25.4367V26.9911C139.252 27.709 137.982 28.063 136.697 28.0001C136.045 28.0349 135.394 27.9228 134.792 27.6721C134.189 27.4214 133.651 27.0385 133.217 26.5518C132.382 25.5863 131.965 24.2619 131.965 22.5787C131.953 21.6015 132.168 20.6347 132.593 19.7546C132.97 18.9485 133.567 18.2643 134.314 17.7801C135.042 17.3128 135.89 17.0678 136.755 17.0753C137.347 17.0442 137.939 17.1464 138.486 17.3746C139.033 17.6027 139.522 17.9508 139.917 18.3932C140.671 19.2718 141.048 20.5013 141.048 22.0815V22.9553ZM139.341 21.5408C139.376 20.7392 139.129 19.9507 138.645 19.3105C138.409 19.0406 138.114 18.8282 137.783 18.6893C137.452 18.5504 137.094 18.4888 136.736 18.5091C136.366 18.5042 135.999 18.5759 135.657 18.7196C135.316 18.8633 135.009 19.076 134.754 19.3442C134.178 19.9483 133.814 20.7223 133.715 21.5505H139.341" fill="white"/>
<path d="M148.4 19.0205C148.152 18.865 147.876 18.7599 147.588 18.7112C147.299 18.6625 147.004 18.6711 146.719 18.7366C146.434 18.8021 146.164 18.9231 145.926 19.0928C145.688 19.2624 145.485 19.4774 145.331 19.7253C144.835 20.5411 144.593 21.4852 144.634 22.4384V27.7488H142.967V17.3308H144.634V19.4743H144.678C144.869 18.8198 145.239 18.2314 145.746 17.775C146.201 17.3664 146.793 17.1426 147.404 17.1474C147.742 17.1335 148.079 17.1809 148.4 17.2874V19.0205Z" fill="white"/>
<path d="M4.19016 5.87052C4.20462 6.14589 4.15344 6.42075 4.04084 6.67252C3.92824 6.9243 3.75742 7.14579 3.54243 7.3188C3.03019 7.69044 2.40542 7.87455 1.77322 7.84018C1.46244 7.83583 1.15361 7.79037 0.854789 7.70501C0.599403 7.65185 0.354464 7.55727 0.129707 7.42501V6.41121C0.368491 6.62297 0.64584 6.78687 0.946632 6.89397C1.24701 7.01259 1.56628 7.07636 1.88924 7.08225C2.82218 7.08225 3.29106 6.72018 3.29106 5.99121C3.29795 5.69988 3.19037 5.41743 2.99136 5.20432C2.62213 4.86469 2.20923 4.57571 1.76356 4.34501C1.27776 4.10942 0.842641 3.78146 0.48258 3.37949C0.20398 3.00064 0.0786095 2.53083 0.13147 2.06376C0.18433 1.59669 0.411537 1.16668 0.767779 0.85949C1.24005 0.48403 1.83243 0.291972 2.43547 0.318801C2.9331 0.282786 3.43181 0.372437 3.88563 0.579491V1.54501C3.46608 1.21989 2.94701 1.04937 2.41613 1.06225C2.06897 1.05343 1.72878 1.16046 1.44936 1.36639C1.32617 1.45973 1.2272 1.58122 1.16076 1.72066C1.09431 1.8601 1.06232 2.01343 1.06748 2.16777C1.05869 2.3674 1.0985 2.56618 1.18349 2.74708C1.27859 2.91738 1.41074 3.06421 1.5702 3.17673C1.86061 3.39225 2.16772 3.58435 2.48864 3.75121C2.99635 4.0085 3.45455 4.35334 3.84212 4.76984C4.09493 5.08054 4.23012 5.47022 4.224 5.87052" fill="white"/>
<path d="M6.76741 0.636917C6.77088 0.709494 6.7579 0.781918 6.72945 0.848789C6.70099 0.91566 6.65779 0.975251 6.60306 1.02312C6.55249 1.07377 6.49212 1.11359 6.42563 1.14015C6.35915 1.16671 6.28793 1.17945 6.21635 1.17761C6.1452 1.17927 6.07443 1.16691 6.00807 1.14123C5.94172 1.11555 5.88108 1.07706 5.82964 1.02795C5.77809 0.977068 5.73771 0.91602 5.71108 0.848697C5.68444 0.781374 5.67214 0.709249 5.67495 0.636917C5.67403 0.566267 5.68724 0.496144 5.7138 0.430657C5.74036 0.365169 5.77975 0.305633 5.82964 0.255537C5.90638 0.180006 6.0036 0.128598 6.10929 0.107674C6.21498 0.0867492 6.32449 0.0972266 6.42428 0.137809C6.52407 0.178392 6.60975 0.247299 6.67074 0.336007C6.73172 0.424715 6.76533 0.529333 6.76741 0.636917ZM6.63206 7.72381H5.80063V2.50037H6.63689V7.72381" fill="white"/>
<path d="M9.4115 7.70966H8.58008V0H9.4115V7.70966Z" fill="white"/>
<path d="M15.4684 2.50092L13.3802 7.72437H12.5681L10.5911 2.50092H11.5095L12.834 6.27609C12.9119 6.51523 12.9686 6.76078 13.0032 7.00989H13.0515C13.0784 6.7682 13.1319 6.53021 13.211 6.30023L14.5983 2.49609H15.4684" fill="white"/>
<path d="M20.7568 5.31057H17.0782C17.0619 5.80314 17.2349 6.28328 17.5616 6.65264C17.7208 6.81605 17.9132 6.94364 18.1257 7.02689C18.3383 7.11014 18.5662 7.14713 18.7942 7.1354C19.3802 7.13495 19.9484 6.93389 20.4039 6.56574V7.34298C19.8695 7.69503 19.2351 7.86443 18.596 7.82574C18.2705 7.84409 17.945 7.78894 17.6437 7.66442C17.3425 7.53989 17.0732 7.34917 16.8558 7.10643C16.41 6.54242 16.1865 5.83487 16.2274 5.11747C16.2219 4.62967 16.3294 4.1472 16.5416 3.70781C16.7311 3.30726 17.0292 2.96776 17.4021 2.72781C17.7662 2.49279 18.1915 2.37021 18.625 2.3754C18.9209 2.35954 19.2166 2.4103 19.4902 2.52395C19.7638 2.63759 20.0083 2.81121 20.2057 3.03195C20.6108 3.55839 20.8117 4.21336 20.7713 4.87609V5.31057H20.7568ZM19.9157 4.60091C19.936 4.19822 19.8127 3.80137 19.5676 3.48091C19.448 3.34461 19.2986 3.23759 19.131 3.16811C18.9634 3.09864 18.782 3.06857 18.6009 3.08023C18.4196 3.08069 18.2403 3.11819 18.074 3.19041C17.9077 3.26264 17.758 3.36807 17.6341 3.50023C17.3457 3.80127 17.1626 4.18738 17.112 4.60091H19.9253" fill="white"/>
<path d="M24.9525 3.34556C24.7017 3.18909 24.3991 3.13832 24.1109 3.20439C23.8228 3.27045 23.5726 3.44796 23.4153 3.69797C23.1712 4.10717 23.0519 4.57862 23.0721 5.05452V7.72418H22.2358V2.50073H23.0721V3.57728C23.1673 3.24787 23.3532 2.9518 23.6087 2.7228C23.8351 2.51849 24.1301 2.40651 24.4353 2.40901C24.5995 2.40332 24.7633 2.42787 24.9186 2.48142V3.34556" fill="white"/>
</g>
<defs>
<clipPath id="clip0_422:1137">
<rect width="148.4" height="28" fill="white"/>
</clipPath>
</defs>
</svg>
