<?xml version="1.0" encoding="utf-8"?>
<!-- Generator: Adobe Illustrator 25.4.1, SVG Export Plug-In . SVG Version: 6.00 Build 0)  -->
<svg version="1.1" id="Layer_1" xmlns="http://www.w3.org/2000/svg" xmlns:xlink="http://www.w3.org/1999/xlink" x="0px" y="0px"
	 viewBox="0 0 500 316" style="enable-background:new 0 0 500 316;" xml:space="preserve">
<style type="text/css">
	.st0{fill-rule:evenodd;clip-rule:evenodd;fill:#003473;}
	.st1{fill-rule:evenodd;clip-rule:evenodd;fill:#FCB131;}
	.st2{fill-rule:evenodd;clip-rule:evenodd;fill:#ED1C2E;}
	.st3{fill-rule:evenodd;clip-rule:evenodd;fill:#FFFFFF;}
</style>
<g>
	<polygon class="st0" points="0,316 500,316 500,0 0,0 0,316 	"/>
	<path class="st1" d="M250.4,259c24.1,22,56.6,35.3,91.7,35.3c75.6,0,136.7-61.1,136.7-136.6c0-75.3-61.1-136.6-136.7-136.6
		c-35.1,0-67.6,13.4-91.7,35.3c-27.6,25.2-45,61.1-45,101.2S222.8,234.1,250.4,259L250.4,259z"/>
	<path class="st1" d="M460.6,233.8c0-2.4,1.9-4.3,4.6-4.3c2.4,0,4.3,1.9,4.3,4.3c0,2.4-1.9,4.6-4.3,4.6
		C462.5,238.3,460.6,236.2,460.6,233.8L460.6,233.8z M465.1,237.3c1.6,0,3.2-1.6,3.2-3.5s-1.6-3.2-3.2-3.2c-1.9,0-3.5,1.3-3.5,3.2
		S463.3,237.3,465.1,237.3L465.1,237.3z M464.3,235.9h-0.8v-4h1.6c0.3,0,0.8,0,1.1,0.3c0.3,0.3,0.5,0.5,0.5,0.8
		c0,0.5-0.3,1.1-0.8,1.1l0.8,1.9h-1.1l-0.5-1.6h-0.8V235.9L464.3,235.9z M464.3,233.5h0.5c0.3,0,0.5,0,0.5,0c0.3,0,0.3-0.3,0.3-0.5
		c0,0,0-0.3-0.3-0.3c0,0-0.3,0-0.5,0h-0.5V233.5L464.3,233.5z"/>
	<path class="st2" d="M294.6,143.3c-0.5-4.8-1.3-9.6-2.4-14.5h-83.6c1.1-4.8,2.4-9.6,4-14.5h75.6c-1.6-4.8-3.5-9.6-5.6-14.5h-64.3
		c2.4-4.8,5.1-9.6,8-14.5h48.3c-2.9-5.1-6.4-9.9-10.5-14.5h-27.3c4-5.1,8.8-9.9,13.7-14.5c-24.1-22-56.3-35.3-91.7-35.3
		C83.1,21.2,22,82.5,22,157.7c0,75.5,61.1,136.6,136.7,136.6c35.4,0,67.6-13.4,91.7-35.3l0,0c4.8-4.6,9.7-9.4,13.9-14.5h-27.6
		c-3.8-4.6-7.2-9.4-10.5-14.5h48.3c2.9-4.6,5.6-9.4,8-14.5h-64.3c-2.1-4.6-4-9.4-5.6-14.5h75.6c1.6-4.8,2.9-9.6,4-14.5
		c1.1-4.8,1.9-9.6,2.4-14.5c0.5-4.8,0.8-9.6,0.8-14.5C295.4,152.9,295.2,148.1,294.6,143.3L294.6,143.3z"/>
	<path class="st3" d="M460.6,189.3c0-2.4,1.9-4.3,4.6-4.3c2.4,0,4.3,1.9,4.3,4.3c0,2.4-1.9,4.6-4.3,4.6
		C462.5,193.9,460.6,191.7,460.6,189.3L460.6,189.3z M465.1,192.8c1.6,0,3.2-1.6,3.2-3.5c0-1.9-1.6-3.2-3.2-3.2
		c-1.9,0-3.5,1.3-3.5,3.2C461.7,191.2,463.3,192.8,465.1,192.8L465.1,192.8z M464.3,191.5h-0.8v-4h1.6c0.3,0,0.8,0,1.1,0.3
		c0.3,0.3,0.5,0.5,0.5,0.8c0,0.5-0.3,1.1-0.8,1.1l0.8,1.9h-1.1l-0.5-1.6h-0.8V191.5L464.3,191.5z M464.3,189.1h0.5
		c0.3,0,0.5,0,0.5,0c0.3,0,0.3-0.3,0.3-0.5c0,0,0-0.3-0.3-0.3c0,0-0.3,0-0.5,0h-0.5V189.1L464.3,189.1z"/>
	<path class="st0" d="M204,197.1c-4.6,1.3-7.8,1.9-11.3,1.9c-7,0-11.3-4.3-11.3-12.3c0-1.6,0.3-3.2,0.5-5.1l0.8-5.4l0.8-4.6
		l6.4-38.6h14.2l-1.6,8.6h8.8l-2.1,14.2h-8.8l-4,23c0,0.8-0.3,1.6-0.3,2.1c0,2.9,1.6,4.3,5.1,4.3c1.9,0,2.9-0.3,4.6-0.5L204,197.1
		L204,197.1z"/>
	<path class="st0" d="M249.9,196.6c-5.1,1.6-10.2,2.4-15.3,2.4c-15.8,0-25.2-8.6-25.2-25.2c0-19.3,11-33.7,26-33.7
		c12.1,0,19.8,8,19.8,20.6c0,4-0.5,8-1.9,13.9h-29.5c0,0.8,0,1.1,0,1.6c0,6.7,4.3,9.9,12.9,9.9c5.4,0,10.2-1.1,15.5-3.5L249.9,196.6
		L249.9,196.6z M241,163.1c0-1.1,0-2.1,0-2.7c0-4.6-2.7-7.2-7-7.2c-4.8,0-8,3.5-9.4,9.9H241L241,163.1z"/>
	<polygon class="st0" points="90.6,197.9 75.9,197.9 84.4,144.6 65.4,197.9 55.2,197.9 54.2,144.9 45,197.9 30.8,197.9 42.4,128.5 
		63.5,128.5 64.3,171.4 78.6,128.5 102.1,128.5 90.6,197.9 	"/>
	<path class="st0" d="M126.3,172.7c-1.6,0-1.9-0.3-2.9-0.3c-8.3,0-12.6,3.2-12.6,8.6c0,3.7,2.1,5.9,5.4,5.9
		C123.3,186.9,126,181,126.3,172.7L126.3,172.7z M138.1,197.9h-12.9l0.3-5.9c-3.2,4.6-7.5,7-15.6,7c-7.2,0-13.1-6.4-13.1-15.5
		c0-2.7,0.5-5.1,1.1-7.2c2.4-8.8,11.3-14.2,24.7-14.5c1.6,0,4.3,0,6.4,0.3c0.5-1.9,0.5-2.7,0.5-3.7c0-3.7-2.9-4.8-9.9-4.8
		c-4.3,0-8.8,0.8-12.3,1.6l-1.9,0.8h-1.1l2.1-12.6c7-2.1,11.8-2.9,17.2-2.9c12.9,0,19.6,5.6,19.6,16.6c0,2.7,0.3,4.8-0.8,11
		l-2.9,20.1l-0.5,3.5l-0.5,2.9v1.9L138.1,197.9L138.1,197.9z"/>
	<path class="st0" d="M321.2,142.2c4,0,7.8,1.1,13.1,3.7l2.4-15.3c-1.3-0.5-1.6-0.5-3.5-1.3l-6.2-1.3c-1.9-0.5-4-0.8-6.7-0.8
		c-7.2,0-11.5,0-16.1,2.9c-2.4,1.3-5.4,3.5-8.8,7.2l-1.6-0.5l-15.3,10.7l0.8-5.9h-15.8l-8.8,56.2h14.7l5.4-30.3c0,0,2.1-4.3,3.2-5.6
		c2.7-3.5,5.1-3.5,8-3.5c0.5,0,1.1,0,1.1,0c-0.3,3.2-0.5,7-0.5,10.7c0,18.5,10.5,30,26.5,30c4,0,7.5-0.5,12.9-2.1l2.7-15.8
		c-4.8,2.4-8.8,3.5-12.6,3.5c-8.6,0-13.7-6.2-13.7-16.9C302.4,152.9,309.9,142.2,321.2,142.2L321.2,142.2z"/>
	<path class="st0" d="M446.4,128.5l-3.2,19.8c-3.5-5.4-7.8-7.8-13.4-7.8c-7.8,0-15,4.3-19.6,12.6l0,0l-9.4-5.6l0.8-5.9h-15.8
		l-9.1,56.2h15l4.8-30.3c0,0,3.8-4.3,4.8-5.6c2.1-2.7,4.6-3.5,6.4-3.5c-1.6,4.8-2.7,10.4-2.7,16.6c0,14.2,7.5,23.6,18.2,23.6
		c5.4,0,9.7-1.9,13.7-6.4l-0.8,5.6h14.2l11.3-69.4H446.4L446.4,128.5z M428.4,184.5c-5.1,0-7.5-3.5-7.5-11c0-11,4.6-19,11.5-19
		c5.1,0,7.8,4,7.8,11.2C440.2,176.7,435.4,184.5,428.4,184.5L428.4,184.5z"/>
	<path class="st0" d="M360.1,172.7c-1.6,0-1.9-0.3-2.9-0.3c-8.3,0-12.6,3.2-12.6,8.6c0,3.7,2.1,5.9,5.4,5.9
		C357.1,186.9,359.8,181,360.1,172.7L360.1,172.7z M371.8,197.9H359l0.3-5.9c-3.2,4.6-7.5,7-15.5,7c-7.2,0-13.7-6.2-13.7-15.5
		c0.3-13.4,10.2-21.7,26.3-21.7c1.6,0,4.3,0,6.4,0.3c0.5-1.9,0.5-2.7,0.5-3.7c0-3.7-2.9-4.8-9.9-4.8c-4.3,0-9.1,0.8-12.3,1.6
		l-2.1,0.8h-0.8l2.1-12.6c7-2.1,11.8-2.9,17.2-2.9c12.9,0,19.6,5.6,19.6,16.6c0,2.7,0.3,4.8-0.8,11l-2.9,20.1l-0.5,3.5l-0.5,2.9
		l-0.3,1.9V197.9L371.8,197.9z"/>
	<path class="st0" d="M168.9,153.7c2.9,0,7,0.3,11.3,0.8l2.1-13.1c-4.3-0.5-9.9-1.1-13.4-1.1c-16.4,0-22,8.8-22,19.3
		c0,6.7,3.2,11.8,11,15.3c6.2,2.9,7.2,3.5,7.2,5.9c0,3.5-3.2,5.6-9.1,5.6c-4.3,0-8.3-0.8-13.1-2.1l-1.6,12.9h0.3l2.7,0.5
		c0.8,0.3,2.1,0.5,3.8,0.5c3.8,0.5,6.7,0.5,8.6,0.5c16.4,0,23.3-6.2,23.3-18.7c0-7.8-3.8-12.3-11.3-15.5c-6.2-2.9-7-3.2-7-5.9
		C161.7,155.9,164.3,153.7,168.9,153.7L168.9,153.7z"/>
	<path class="st3" d="M340.8,126.4l-2.4,15c-5.4-2.7-9.1-3.7-13.1-3.7c-11.3,0-19,10.7-19,26c0,10.4,5.4,16.9,13.9,16.9
		c3.8,0,7.8-1.1,12.6-3.5l-2.7,15.8c-5.4,1.3-8.8,1.9-13.1,1.9c-15.8,0-25.7-11.2-25.7-29.7c0-24.9,13.7-42,33.2-42
		c2.7,0,4.8,0.3,6.7,0.5l6.2,1.6C339.1,125.9,339.4,125.9,340.8,126.4L340.8,126.4z"/>
	<path class="st3" d="M293.3,136.8c-0.5-0.3-1.1-0.3-1.6-0.3c-4.8,0-7.5,2.4-12.1,9.1l1.3-8.6h-13.7l-8.8,56.5h14.7
		c5.4-34.5,6.7-40.4,13.9-40.4c0.3,0,0.3,0,1.1,0c1.3-6.7,2.9-11.8,5.6-16.3H293.3L293.3,136.8z"/>
	<path class="st3" d="M207.8,192.8c-4,1.3-7.2,1.9-10.7,1.9c-7.5,0-11.8-4.3-11.8-12.3c0-1.6,0.3-3.2,0.5-5.1l0.8-5.6l0.8-4.3
		l6.4-38.6h14.7l-1.6,8.3h7.5l-2.1,13.9h-7.5l-4,23.3c0,1.1-0.3,1.9-0.3,2.4c0,2.9,1.6,4.3,5.1,4.3c1.9,0,2.9-0.3,4-0.5L207.8,192.8
		L207.8,192.8z"/>
	<path class="st3" d="M150.7,155.1c0,7,3.5,12.1,11.3,15.5c6.2,2.9,7,3.7,7,6.4c0,3.5-2.7,5.1-8.6,5.1c-4.3,0-8.3-0.8-13.1-2.4
		l-2.1,13.1h0.8l2.7,0.5c0.8,0.3,2.1,0.5,3.8,0.5c3.5,0.3,6.4,0.5,8.3,0.5c15.5,0,22.8-5.9,22.8-18.7c0-7.8-2.9-12.3-10.5-15.8
		c-6.2-2.7-7-3.5-7-5.9c0-3.2,2.4-4.8,7.2-4.8c2.9,0,7,0.5,10.7,1.1l2.1-13.1c-3.8-0.5-9.7-1.1-13.1-1.1
		C156.3,136,150.7,144.6,150.7,155.1L150.7,155.1z"/>
	<path class="st3" d="M454.2,193.6h-14.2l0.8-5.6c-4,4.3-8.3,6.2-13.7,6.2c-10.7,0-18-9.1-18-23.3c0-18.7,11-34.5,24.1-34.5
		c5.9,0,10.2,2.4,14.2,7.8l3.2-19.8h14.7L454.2,193.6L454.2,193.6z M432.2,180.2c7,0,11.8-7.8,11.8-19c0-7-2.7-11-7.8-11
		c-6.7,0-11.5,7.8-11.5,19C424.7,176.5,427.1,180.2,432.2,180.2L432.2,180.2z"/>
	<path class="st3" d="M253.1,192.3c-5.1,1.6-9.9,2.4-15.3,2.4c-16.6,0-25.2-8.8-25.2-25.2c0-19.5,11-33.7,26-33.7
		c12.1,0,19.8,8,19.8,20.6c0,4-0.5,8-1.6,13.9h-29.5c-0.3,0.8-0.3,1.1-0.3,1.6c0,6.4,4.3,9.9,13.1,9.9c5.1,0,9.9-1.1,15.3-3.5
		L253.1,192.3L253.1,192.3z M244.8,158.8c0-1.1,0-2.1,0-2.9c0-4.6-2.4-7.2-7-7.2c-4.6,0-8,3.7-9.4,10.2H244.8L244.8,158.8z"/>
	<polygon class="st3" points="94.4,193.6 79.6,193.6 88.2,140.3 69.2,193.6 59,193.6 57.9,140.6 48.8,193.6 35.1,193.6 46.6,124.3 
		67.8,124.3 68.6,167.1 82.8,124.3 105.9,124.3 94.4,193.6 	"/>
	<path class="st3" d="M131.1,168.4c-1.6-0.3-2.4-0.3-3.5-0.3c-8.3,0-12.6,2.9-12.6,8.6c0,3.5,2.1,5.9,5.4,5.9
		C126.5,182.6,130.8,176.7,131.1,168.4L131.1,168.4z M141.8,193.6h-12.3l0.3-5.9c-3.8,4.6-8.6,6.7-15.6,6.7c-8,0-13.4-6.2-13.4-15.3
		c0-13.7,9.4-21.7,26-21.7c1.6,0,3.8,0,5.9,0.3c0.5-1.6,0.5-2.4,0.5-3.5c0-3.7-2.4-5.1-9.4-5.1c-4.3,0-9.1,0.5-12.3,1.6l-2.1,0.5
		l-1.3,0.3l2.1-12.6c7.5-2.1,12.3-2.9,17.7-2.9c12.9,0,19.6,5.6,19.6,16.3c0,2.9-0.3,5.1-1.3,11.2l-2.9,20.1l-0.5,3.5l-0.3,2.9
		l-0.3,1.9L141.8,193.6L141.8,193.6z"/>
	<path class="st3" d="M364.9,168.4c-1.6-0.3-2.4-0.3-3.5-0.3c-8.3,0-12.6,2.9-12.6,8.6c0,3.5,2.1,5.9,5.4,5.9
		C360.1,182.6,364.6,176.7,364.9,168.4L364.9,168.4z M375.6,193.6h-12.3l0.3-5.9c-3.8,4.6-8.8,6.7-15.5,6.7c-8,0-13.7-6.2-13.7-15.3
		c0-13.7,9.7-21.7,26.3-21.7c1.6,0,3.8,0,5.9,0.3c0.5-1.6,0.5-2.4,0.5-3.5c0-3.7-2.4-5.1-9.4-5.1c-4.3,0-9.1,0.5-12.3,1.6l-2.1,0.5
		l-1.3,0.3L344,139c7.5-2.1,12.3-2.9,17.7-2.9c12.9,0,19.6,5.6,19.6,16.3c0,2.9-0.3,5.1-1.3,11.2l-2.9,20.1l-0.5,3.5l-0.5,2.9
		l-0.3,1.9V193.6L375.6,193.6z"/>
	<path class="st3" d="M415.3,136.8c-0.3-0.3-0.8-0.3-1.3-0.3c-4.8,0-7.8,2.4-12.3,9.1l1.3-8.6h-13.4l-9.1,56.5h15
		c5.1-34.5,6.7-40.4,13.7-40.4c0.5,0,0.5,0,1.1,0c1.3-6.7,3.2-11.8,5.6-16.3H415.3L415.3,136.8z"/>
</g>
</svg>
