<?xml version="1.0" encoding="utf-8"?>
<!-- Generator: Adobe Illustrator 25.4.1, SVG Export Plug-In . SVG Version: 6.00 Build 0)  -->
<svg version="1.1" id="Layer_1" xmlns="http://www.w3.org/2000/svg" xmlns:xlink="http://www.w3.org/1999/xlink" x="0px" y="0px"
	 viewBox="0 0 500 336" style="enable-background:new 0 0 500 336;" xml:space="preserve">
<style type="text/css">
	.st0{fill:#005A9C;}
	.st1{fill-rule:evenodd;clip-rule:evenodd;fill:#FFFFFF;}
	.st2{fill-rule:evenodd;clip-rule:evenodd;fill:#005A9C;}
	.st3{fill-rule:evenodd;clip-rule:evenodd;fill:#FBAA29;}
</style>
<g>
	<polygon class="st0" points="491.5,336 8.5,336 0,336 0,327.5 0,8.5 0,0 8.5,0 491.5,0 500,0 500,8.5 500,327.5 500,336 491.5,336 
			"/>
	<polygon class="st1" points="491.5,327.5 8.5,327.5 8.5,8.5 491.5,8.5 491.5,327.5 	"/>
	<polygon class="st2" points="183.1,219.8 214.4,116.6 242.4,116.6 211.1,219.8 183.1,219.8 	"/>
	<path class="st2" d="M170.6,116.6l-25.2,43.8c-6.4,11.5-10.2,17.3-12,24.5H133c0.4-9.2-0.8-20.5-1-26.8l-2.8-41.4H82.2l-0.5,2.8
		c12.1,0,19.3,6.1,21.3,18.5l9.2,82h29l58.6-103.2H170.6L170.6,116.6z"/>
	<path class="st2" d="M388.2,219.8l-0.8-15.4l-34.9,0l-7.1,15.4H315l55.1-103.1h37.3l9.3,103.1H388.2L388.2,219.8z M385,158.9
		c-0.3-7.6-0.6-18-0.1-24.3h-0.4c-1.7,5.1-9,20.5-12.2,28.1l-10.4,22.6h24.5L385,158.9L385,158.9z"/>
	<path class="st2" d="M271.8,222.7c-19.8,0-32.9-6.3-42.2-11.8l13.3-20.3c8.4,4.7,15,10.1,30.2,10.1c4.9,0,9.6-1.3,12.3-5.9
		c3.9-6.7-0.9-10.3-11.8-16.5l-5.4-3.5c-16.2-11.1-23.2-21.6-15.6-39.9c4.9-11.7,17.8-20.6,39-20.6c14.6,0,28.4,6.3,36.4,12.5
		l-15.3,17.9c-7.8-6.3-14.3-9.5-21.7-9.5c-5.9,0-10.4,2.3-11.9,5.3c-2.9,5.8,0.9,9.7,9.5,15l6.4,4.1c19.7,12.4,24.4,25.4,19.4,37.5
		C305.8,218.1,289.2,222.7,271.8,222.7L271.8,222.7z"/>
	<path class="st2" d="M425,130.6h-1.2v-7.4h2.8c1.8,0,2.7,0.6,2.7,2.1c0,1.3-0.8,1.9-1.9,2l2.1,3.2h-1.4l-1.9-3.1H425V130.6
		L425,130.6z M426.4,126.4c0.9,0,1.7-0.1,1.7-1.2c0-0.9-0.9-1-1.6-1H425v2.2H426.4L426.4,126.4z M426.3,133.4
		c-3.8,0-6.6-2.9-6.6-6.7c0-4,3-6.7,6.6-6.7c3.5,0,6.5,2.7,6.5,6.7C432.9,130.7,429.8,133.4,426.3,133.4L426.3,133.4z M426.3,121.2
		c-2.9,0-5.1,2.3-5.1,5.5c0,3,2,5.5,5.1,5.5c2.9,0,5.1-2.2,5.1-5.5C431.4,123.5,429.2,121.2,426.3,121.2L426.3,121.2z"/>
	<polygon class="st3" points="479.6,251.9 21.2,251.9 21.2,313.1 479.6,313.1 479.6,251.9 	"/>
	<polygon class="st2" points="478.8,23.7 20.4,23.7 20.4,85 478.8,85 478.8,23.7 	"/>
	<path class="st2" d="M468.3,308.7h-1.2v-7.4h2.8c1.8,0,2.7,0.6,2.7,2.1c0,1.3-0.8,1.9-1.9,2l2.1,3.2h-1.4l-1.9-3.1h-1.1V308.7
		L468.3,308.7z M469.6,304.6c0.9,0,1.7-0.1,1.7-1.2c0-0.9-0.9-1-1.6-1h-1.5v2.2H469.6L469.6,304.6z M469.6,311.6
		c-3.8,0-6.6-2.9-6.6-6.7c0-4,3-6.7,6.6-6.7c3.5,0,6.5,2.7,6.5,6.7C476.1,308.9,473.1,311.6,469.6,311.6L469.6,311.6z M469.6,299.4
		c-2.9,0-5.1,2.3-5.1,5.5c0,3,2,5.5,5.1,5.5c2.9,0,5.1-2.2,5.1-5.5C474.7,301.7,472.5,299.4,469.6,299.4L469.6,299.4z"/>
</g>
</svg>
