<?xml version="1.0" encoding="utf-8"?>
<!-- Generator: Adobe Illustrator 25.4.1, SVG Export Plug-In . SVG Version: 6.00 Build 0)  -->
<svg version="1.1" id="Layer_1" xmlns="http://www.w3.org/2000/svg" xmlns:xlink="http://www.w3.org/1999/xlink" x="0px" y="0px"
	 viewBox="0 0 500 316" style="enable-background:new 0 0 500 316;" xml:space="preserve">
<style type="text/css">
	.st0{fill:#808080;}
</style>
<g>
	<rect class="st0" width="500" height="316"/>
</g>
<g>
	<path d="M154,138.4l-17.1-69.7h13.5l6.6,31.6c1.8,8.5,3.4,17.4,4.6,24.3h0.2c1.1-7.3,3.1-15.6,5.1-24.4l7.5-31.5h13.3l6.9,32.1
		c1.8,8.3,3.2,16,4.2,23.6h0.2c1.2-7.7,2.9-15.6,4.8-24.1l7.2-31.5h12.9l-18.7,69.7h-13.7l-7.2-32.8c-1.8-8-3-14.6-3.8-22.1h-0.2
		c-1.2,7.4-2.6,14.2-4.7,22.1l-8.1,32.8H154z"/>
	<path d="M245.3,68.6v69.7h-12.7V68.6H245.3z"/>
	<path d="M259.9,69.6c4.8-0.8,11.9-1.4,19.2-1.4c10,0,16.9,1.7,21.5,5.6c3.8,3.2,6,8.1,6,14c0,9-6.1,15.1-12.6,17.5v0.3
		c5,1.9,8,6.7,9.7,13.4c2.2,8.7,4,16.8,5.5,19.4h-13.1c-1-2.1-2.7-7.8-4.7-16.4c-2-9.1-5.3-12-12.5-12.2h-6.4v28.6h-12.6V69.6z
		 M272.5,100.4h7.5c8.6,0,14-4.6,14-11.5c0-7.7-5.4-11.2-13.7-11.2c-4,0-6.6,0.3-7.9,0.6V100.4z"/>
	<path d="M357.7,107.4h-26.3v20.5h29.4v10.4h-42.1V68.6h40.5v10.4h-27.8v18h26.3V107.4z"/>
	<path d="M36.7,179.3H16.8v-10.7h52.6v10.7H49.4v59.1H36.7V179.3z"/>
	<path d="M77.6,169.6c4.8-0.8,11.9-1.4,19.2-1.4c10,0,16.9,1.7,21.5,5.6c3.8,3.2,6,8.1,6,14c0,9-6.1,15.1-12.6,17.5v0.3
		c5,1.9,8,6.7,9.7,13.4c2.2,8.7,4,16.8,5.5,19.4h-13.1c-1-2.1-2.7-7.8-4.7-16.4c-2-9.1-5.3-12-12.5-12.2h-6.4v28.6H77.6V169.6z
		 M90.3,200.4h7.5c8.6,0,14-4.5,14-11.5c0-7.7-5.4-11.2-13.7-11.2c-4,0-6.6,0.3-7.9,0.6V200.4z"/>
	<path d="M151.2,218.6l-6,19.8H132l22.3-69.7h16.2l22.6,69.7h-13.7l-6.3-19.8H151.2z M171.1,209l-5.5-17.2c-1.3-4.2-2.5-9-3.5-13
		h-0.2c-1,4-2.1,8.9-3.3,13l-5.4,17.2H171.1z"/>
	<path d="M203,238.4v-69.7h14.5l18,29.9c4.7,7.8,8.7,15.8,11.9,23.4h0.2c-0.8-9.3-1.1-18.3-1.1-29v-24.3h11.8v69.7h-13.1l-18.2-30.6
		c-4.4-7.7-9.1-16.2-12.5-24.1l-0.3,0.1c0.5,9,0.6,18.2,0.6,29.7v24.9H203z"/>
	<path d="M272.6,224.5c4.1,2.4,10.3,4.4,16.9,4.4c8.2,0,12.7-3.8,12.7-9.5c0-5.3-3.5-8.4-12.4-11.6c-11.5-4.1-18.8-10.2-18.8-20.3
		c0-11.4,9.5-20.1,24.6-20.1c7.5,0,13.1,1.7,16.8,3.5l-3.1,10.2c-2.5-1.3-7.3-3.3-13.9-3.3c-8.1,0-11.6,4.3-11.6,8.4
		c0,5.4,4,7.9,13.3,11.5c12.1,4.6,18,10.7,18,20.7c0,11.2-8.5,20.9-26.5,20.9c-7.3,0-15-2.1-18.8-4.3L272.6,224.5z"/>
	<path d="M326.6,168.6h40.2v10.4h-27.5v19.2H365v10.4h-25.6v29.6h-12.7V168.6z"/>
	<path d="M418.2,207.4H392v20.5h29.4v10.4h-42.1v-69.7h40.5v10.4H392v18h26.3V207.4z"/>
	<path d="M432.5,169.6c4.8-0.8,11.9-1.4,19.2-1.4c10,0,16.9,1.7,21.5,5.6c3.8,3.2,6,8.1,6,14c0,9-6.1,15.1-12.6,17.5v0.3
		c5,1.9,8,6.7,9.7,13.4c2.2,8.7,4,16.8,5.5,19.4h-13.1c-1-2.1-2.7-7.8-4.7-16.4c-2-9.1-5.3-12-12.5-12.2h-6.4v28.6h-12.6V169.6z
		 M445.1,200.4h7.5c8.6,0,14-4.5,14-11.5c0-7.7-5.4-11.2-13.7-11.2c-4,0-6.6,0.3-7.9,0.6V200.4z"/>
</g>
</svg>
